PathFileType	4	(X/Y/Z)	/Users/itak/Documents/Research/Walk-IL/dataset/trc/00108_00007.trc
DataRate	CameraRate	NumFrames	NumMarkers	Units	OrigDataRate	OrigDataStartFrame	OrigNumFrames
100.000000	100.000000	4	53	mm	100.000000	65	520
Frame#	Time	RPSI			LPSI			L3			STRN			T10			C7			CLAV			RBAK			LBAK			LSHO			LUPA			LAEL			LAOL			LWTS			LWPS			LFRA			LIFD			LHPS			LHTS			RSHO			RUPA			RAEL			RAOL			RWTS			RWPS			RFRA			RIFD			RHTS			RHPS			RBHD			LFHD			RFHD			LBHD			LHIP			RHIP			RASI			LASI			LKNE			LTHI			LANK			LTIP			LTOE			LMT1			LMT5			LHEE			RKNE			RTHI			RANK			RTIP			RTOE			RMT1			RMT5			RHEE			
		X1	Y1	Z1	X2	Y2	Z2	X3	Y3	Z3	X4	Y4	Z4	X5	Y5	Z5	X6	Y6	Z6	X7	Y7	Z7	X8	Y8	Z8	X9	Y9	Z9	X10	Y10	Z10	X11	Y11	Z11	X12	Y12	Z12	X13	Y13	Z13	X14	Y14	Z14	X15	Y15	Z15	X16	Y16	Z16	X17	Y17	Z17	X18	Y18	Z18	X19	Y19	Z19	X20	Y20	Z20	X21	Y21	Z21	X22	Y22	Z22	X23	Y23	Z23	X24	Y24	Z24	X25	Y25	Z25	X26	Y26	Z26	X27	Y27	Z27	X28	Y28	Z28	X29	Y29	Z29	X30	Y30	Z30	X31	Y31	Z31	X32	Y32	Z32	X33	Y33	Z33	X34	Y34	Z34	X35	Y35	Z35	X36	Y36	Z36	X37	Y37	Z37	X38	Y38	Z38	X39	Y39	Z39	X40	Y40	Z40	X41	Y41	Z41	X42	Y42	Z42	X43	Y43	Z43	X44	Y44	Z44	X45	Y45	Z45	X46	Y46	Z46	X47	Y47	Z47	X48	Y48	Z48	X49	Y49	Z49	X50	Y50	Z50	X51	Y51	Z51	X52	Y52	Z52	X53	Y53	Z53	

66	0.65	491.7804565429688	1127.67333984375	-281.0391235351562	509.7829895019531	1127.94970703125	-414.8568725585938	494.077880859375	1159.733032226562	-350.6424865722656	705.4837646484375	1362.972900390625	-328.8015441894531	461.6510009765625	1309.0595703125	-346.3896789550781	485.7066650390625	1602.328125	-365.9013977050781	667.99951171875	1497.1123046875	-340.2271423339844	429.1319580078125	1421.1484375	-277.0273132324219	483.1990356445312	1577.057373046875	-465.1460571289062	573.1132202148438	1562.882446289062	-527.91455078125	552.9779052734375	1429.8759765625	-595.1812133789062	564.9225463867188	1212.368408203125	-613.5530395507812	507.76416015625	1195.883178710938	-550.73193359375	702.6199951171875	976.261474609375	-583.0952758789062	622.84423828125	935.4232177734375	-597.7086791992188	591.7810668945312	1099.183227539062	-618.76318359375	748.279296875	787.6242065429688	-562.5851440429688	663.8917236328125	866.6477661132812	-603.21728515625	731.017822265625	891.4484252929688	-596.767578125	527.1829223632812	1591.931396484375	-180.0923156738281	503.3569946289062	1520.77587890625	-116.2795028686523	478.1427001953125	1228.226440429688	-89.84717559814453	489.8076782226562	1222.630737304688	-186.3607635498047	622.697998046875	988.8208618164062	-64.07968902587891	544.28662109375	970.7627563476562	-50.60133743286133	498.3922424316406	1155.6396484375	-68.08805084228516	655.4111328125	794.553466796875	-62.44388580322266	651.9627075195312	881.8787231445312	-45.80049896240234	580.7218627929688	873.4877319335938	-32.474853515625	537.7510986328125	1787.211547851562	-293.3456115722656	699.1734619140625	1827.077514648438	-438.0381469726562	703.9013671875	1845.578125	-309.3859252929688	523.1012573242188	1772.724975585938	-427.618896484375	613.71484375	1037.342529296875	-508.3849487304688	604.7755126953125	1034.493896484375	-147.6194000244141	691.352294921875	1107.96240234375	-192.2648620605469	717.5390625	1104.974365234375	-457.1787719726562	628.9591674804688	537.1959228515625	-479.3712768554688	612.647705078125	681.9111938476562	-505.3769836425781	504.7396240234375	35.30646896362305	-477.0679931640625	520.69287109375	291.7593688964844	-508.6907958984375	738.029541015625	35.84920883178711	-424.364013671875	656.7133178710938	42.22487640380859	-388.7377014160156	629.0889282226562	32.36485290527344	-504.8893432617188	437.52099609375	37.67753219604492	-414.1438903808594	603.2799682617188	542.0718994140625	-177.6001434326172	623.4791870117188	821.5494995117188	-148.4649200439453	520.8853759765625	28.05582618713379	-200.1994781494141	581.2313232421875	408.6797485351562	-167.5461730957031	753.3585205078125	43.79693603515625	-248.1314392089844	693.2271118164062	32.51728820800781	-291.6938781738281	654.5465087890625	37.59368896484375	-176.0342712402344	463.8959655761719	31.54926490783691	-250.1069946289062	
67	0.66	491.933349609375	1127.646484375	-280.9876403808594	509.9857177734375	1127.96923828125	-414.72021484375	494.0761413574219	1159.6826171875	-350.5790405273438	705.4431762695312	1363.04052734375	-329.2510375976562	461.6063232421875	1308.964233398438	-346.3008422851562	485.4498901367188	1602.239868164062	-365.5834655761719	667.849853515625	1497.145629882812	-340.4433288574219	429.3141784667969	1420.999633789062	-276.73583984375	482.779541015625	1577.126953125	-464.9622802734375	572.644775390625	1563.067749023438	-527.82666015625	552.7667846679688	1430.086181640625	-595.11083984375	565.2269287109375	1212.476928710938	-613.4428100585938	507.9394836425781	1196.042358398438	-550.7098999023438	701.946044921875	975.711669921875	-582.67138671875	621.9912719726562	935.2103881835938	-597.3778076171875	591.78076171875	1099.180419921875	-618.5502319335938	746.5553588867188	786.8284912109375	-561.7650146484375	662.6892700195312	866.2174072265625	-602.6956787109375	729.9759521484375	890.6812133789062	-596.1923828125	527.3284912109375	1591.729125976562	-179.9346618652344	503.7052917480469	1520.545043945312	-116.0675735473633	478.9532165527344	1227.9599609375	-89.56084442138672	490.28857421875	1222.418334960938	-186.0708160400391	624.4846801757812	989.046630859375	-64.31587219238281	546.2001342773438	970.6998901367188	-50.49296569824219	499.5247497558594	1155.396484375	-67.84818267822266	657.9080200195312	794.927490234375	-62.63400268554688	654.2471923828125	882.2606201171875	-46.06512451171875	583.0892333984375	873.583984375	-32.45627593994141	537.4318237304688	1787.145385742188	-292.9626159667969	698.0274658203125	1827.233032226562	-438.5809631347656	703.3834838867188	1845.940795898438	-309.9384765625	522.1704711914062	1772.451049804688	-427.1408081054688	613.2402954101562	1037.441528320312	-508.7444152832031	605.4043579101562	1034.468872070312	-147.9744720458984	691.832275390625	1108.143310546875	-192.8776245117188	717.1539306640625	1105.00732421875	-457.8008117675781	628.490966796875	537.17333984375	-479.741943359375	612.0764770507812	681.9912719726562	-505.7398681640625	504.6974792480469	35.24452972412109	-477.0945129394531	520.4124755859375	291.7245178222656	-508.8008728027344	737.9998779296875	35.87189102172852	-424.3827819824219	656.7020263671875	42.26319885253906	-388.7905883789062	629.0787963867188	32.33638381958008	-504.9335632324219	437.5130920410156	37.65956115722656	-414.1563415527344	603.9052124023438	542.0579833984375	-177.8777923583984	624.0230712890625	821.531005859375	-148.8690795898438	520.8823852539062	28.07067489624023	-200.2110290527344	581.7647705078125	408.6453247070312	-167.7418823242188	753.3649291992188	43.77281951904297	-248.1597137451172	693.2208251953125	32.45298385620117	-291.7424621582031	654.5523681640625	37.60520172119141	-176.0727081298828	463.888671875	31.56207084655762	-250.1189575195312	
68	0.67	492.1527099609375	1127.619873046875	-280.8840637207031	510.065185546875	1127.997192382812	-414.5538024902344	494.0841064453125	1159.633056640625	-350.4755859375	705.398193359375	1363.1025390625	-329.7182312011719	461.5491638183594	1308.874267578125	-346.1968383789062	485.1752319335938	1602.159301757812	-365.2287292480469	667.7125244140625	1497.181884765625	-340.6511535644531	429.5027160644531	1420.853637695312	-276.4134216308594	482.3604431152344	1577.20849609375	-464.7457275390625	572.1554565429688	1563.27294921875	-527.7205200195312	552.5226440429688	1430.315307617188	-595.0313110351562	565.4982299804688	1212.610961914062	-613.3405151367188	508.0068054199219	1196.2421875	-550.718505859375	701.1492919921875	975.1251220703125	-582.2383422851562	621.0086059570312	935.0134887695312	-597.0639038085938	591.7068481445312	1099.195434570312	-618.3432006835938	744.6174926757812	785.9827880859375	-560.92236328125	661.325927734375	865.7719116210938	-602.1781005859375	728.7688598632812	889.8764038085938	-595.5963134765625	527.501953125	1591.507080078125	-179.7478790283203	504.0886535644531	1520.2880859375	-115.8367080688477	479.7920837402344	1227.659912109375	-89.30470275878906	490.8590393066406	1222.177368164062	-185.7891845703125	626.29931640625	989.2301025390625	-64.62725067138672	548.1341552734375	970.6006469726562	-50.45981979370117	500.6888122558594	1155.124633789062	-67.64970397949219	660.4127807617188	795.2576904296875	-62.96933746337891	656.5404052734375	882.5927734375	-46.44991683959961	585.4677734375	873.6333618164062	-32.5465202331543	537.11767578125	1787.07177734375	-292.5197143554688	696.8408813476562	1827.401123046875	-439.07177734375	702.83740234375	1846.295654296875	-310.4356079101562	521.22119140625	1772.18017578125	-426.6028747558594	612.7197875976562	1037.540893554688	-509.0924072265625	606.0917358398438	1034.4375	-148.3269805908203	692.30712890625	1108.28955078125	-193.4857330322266	716.721435546875	1105.047973632812	-458.4368591308594	628.0087280273438	537.1615600585938	-480.1162414550781	611.4735107421875	682.0556030273438	-506.1070251464844	504.6585998535156	35.18478775024414	-477.1204528808594	520.1161499023438	291.6746215820312	-508.9125366210938	737.9699096679688	35.89803314208984	-424.4030456542969	656.689697265625	42.30116653442383	-388.8486938476562	629.0712890625	32.30862045288086	-504.9812927246094	437.50341796875	37.6414794921875	-414.1678161621094	604.5687255859375	542.0429077148438	-178.1608123779297	624.6373901367188	821.511962890625	-149.2831573486328	520.8806762695312	28.08651351928711	-200.224365234375	582.3341674804688	408.6131286621094	-167.9328765869141	753.3710327148438	43.74648284912109	-248.1924743652344	693.2139892578125	32.38263702392578	-291.7957763671875	654.5640258789062	37.61968612670898	-176.1162567138672	463.8817138671875	31.57722282409668	-250.1316528320312	
69	0.68	492.4389343261719	1127.59033203125	-280.7295532226562	509.9994506835938	1128.027099609375	-414.3746032714844	494.1024780273438	1159.584228515625	-350.3354797363281	705.3499145507812	1363.156372070312	-330.2042236328125	461.4722900390625	1308.7900390625	-346.0811462402344	484.8858032226562	1602.090698242188	-364.8478088378906	667.5877075195312	1497.220703125	-340.8530883789062	429.6866455078125	1420.702758789062	-276.0643310546875	481.9348449707031	1577.3037109375	-464.4920349121094	571.638916015625	1563.494262695312	-527.5995483398438	552.2342529296875	1430.556030273438	-594.9447631835938	565.7347412109375	1212.7685546875	-613.2433471679688	507.927001953125	1196.480346679688	-550.7553100585938	700.2398071289062	974.5056762695312	-581.8011474609375	619.9091796875	934.8423461914062	-596.7747802734375	591.5590209960938	1099.227661132812	-618.1402587890625	742.4816284179688	785.0868530273438	-560.0761108398438	659.8125	865.3212890625	-601.6790161132812	727.4005126953125	889.0411376953125	-594.9855346679688	527.697509765625	1591.264770507812	-179.5353240966797	504.5046081542969	1520.005737304688	-115.5908355712891	480.6553955078125	1227.326904296875	-89.08090972900391	491.5162048339844	1221.903198242188	-185.5261077880859	628.1207885742188	989.3732299804688	-65.01264190673828	550.0803833007812	970.4642333984375	-50.50260925292969	501.8747863769531	1154.82275390625	-67.49538421630859	662.92041015625	795.5453491210938	-63.44302749633789	658.8328857421875	882.8775634765625	-46.94841003417969	587.8480224609375	873.636962890625	-32.74456405639648	536.807373046875	1786.986450195312	-292.022705078125	695.62109375	1827.584716796875	-439.4943542480469	702.2646484375	1846.642700195312	-310.869873046875	520.2576293945312	1771.9140625	-426.0142517089844	612.1500854492188	1037.633911132812	-509.4216918945312	606.8456420898438	1034.399658203125	-148.6720275878906	692.8040161132812	1108.390747070312	-194.1034851074219	716.244873046875	1105.09912109375	-459.0924377441406	627.5150756835938	537.1658935546875	-480.4877014160156	610.83935546875	682.1058959960938	-506.4686889648438	504.6221618652344	35.125732421875	-477.1446228027344	519.8040771484375	291.6097717285156	-509.0250549316406	737.9390869140625	35.92739868164062	-424.4251403808594	656.6759643554688	42.33792114257812	-388.9112548828125	629.0640258789062	32.28194427490234	-505.0308227539062	437.4921264648438	37.62252426147461	-414.1777648925781	605.2697143554688	542.0255737304688	-178.4494934082031	625.3383178710938	821.4930419921875	-149.7024383544922	520.8810424804688	28.1041374206543	-200.2386779785156	582.9365844726562	408.5829772949219	-168.1217651367188	753.3768310546875	43.71927642822266	-248.2288208007812	693.2081298828125	32.3085823059082	-291.8534851074219	654.5822143554688	37.63693618774414	-176.1643524169922	463.87548828125	31.59354400634766	-250.1442718505859	
